<svg xmlns="http://www.w3.org/2000/svg"
 width="512pt" height="512pt" viewBox="0 0 512 512"
 preserveAspectRatio="xMidYMid meet">
<g transform="translate(0,512) scale(0.1,-0.1)"
fill="#000000" stroke="none">
<path d="M1570 4150 c-239 -31 -432 -97 -635 -218 -247 -147 -476 -395 -608
-658 -53 -105 -120 -300 -137 -394 -6 -36 -14 -76 -17 -90 -10 -48 -12 -356
-2 -430 12 -91 58 -291 70 -304 5 -6 9 -16 9 -24 0 -25 82 -203 129 -282 88
-146 129 -198 257 -326 219 -220 495 -369 794 -431 179 -37 425 -42 600 -12
309 52 602 199 831 417 143 136 252 286 354 487 18 36 24 40 65 43 74 5 239
41 332 72 200 67 391 191 523 341 135 153 217 303 281 509 18 58 31 106 30
108 -2 1 -27 -3 -57 -8 -137 -27 -195 -32 -389 -35 -165 -3 -278 7 -390 34
-41 10 -35 12 70 36 137 32 313 95 445 160 164 81 175 88 282 167 197 147 337
315 444 533 41 85 109 276 109 307 0 10 -1295 6 -1335 -4 -11 -3 -47 -9 -80
-12 -310 -36 -529 -134 -696 -313 l-46 -49 -39 33 c-168 143 -439 271 -674
320 -142 29 -386 40 -520 23z m336 -1134 c68 -21 160 -82 213 -142 47 -52 96
-147 107 -204 33 -178 -13 -331 -136 -451 -38 -38 -75 -69 -82 -69 -6 0 -19
-6 -27 -13 -28 -24 -131 -50 -208 -52 -139 -5 -250 40 -350 141 -41 40 -74 85
-93 126 -105 227 -26 490 186 618 110 66 265 84 390 46z"/>
</g>
</svg>
